<?xml version="1.0" encoding="UTF-8"?>
<svg id="Layer_2" data-name="Layer 2" xmlns="http://www.w3.org/2000/svg" viewBox="0 0 964.68 363.01">
  <path d="m131.36,216.85c-2.52,7.47-9.87,12.35-17.75,10.33-3.64-.93-7.03-3.19-8.04-6.99s.33-7.77,1.83-11.19c2.6-5.95,6.56-13.06,13.05-15.38,6.04-2.16,13.33,1.7,16.17,7.15,3.32,6.36.91,15.3-5.4,18.89-.38.22-.86.53-.33.84.47.28,1.61-.11,2.03-.35,6.37-3.62,9.91-11.72,7.22-18.77s-10.74-10.72-17.92-9.32c-8.24,1.6-13.44,8.53-16.88,15.68-1.82,3.79-3.6,8.2-2.83,12.49s4.5,7,8.53,8.1c9.39,2.55,20.04-2.62,23.18-11.94.22-.65-2.6-.32-2.87.48h0Z"/>
  <path d="m62.85,158.93c-.53,2.84-5.82-1.35-6.86-2.2-2.14-1.73-3.98-3.83-5.49-6.14-3.01-4.61-4.65-10.19-4.37-15.7.15-2.97.96-6.01,4.31-6.55,3-.49,5.96,1.37,8.25,3.09,4.55,3.43,8.02,8.29,9.91,13.65,1.03,2.9,1.92,6.32,1.52,9.42-.18,1.42-.78,2.95-2.26,3.43s-3.27.07-4.74-.25c-.71-.15-1.56-.04-2.05.55-.39.46-.32,1.21.36,1.36,3.3.72,7.24,1.22,9.86-1.43,2.46-2.48,1.97-6.48,1.36-9.6-1.36-7.04-5.29-13.51-10.82-18.06-2.89-2.37-6.38-4.4-10.22-4.29-3.47.1-6.84,2.05-7.89,5.47s-.66,7.35.1,10.72,2.14,6.57,4.02,9.44c2.14,3.28,5,6.15,8.32,8.24,1.67,1.05,3.53,2.04,5.57,1.86,1.86-.17,3.69-1.36,4.05-3.27.26-1.4-2.69-1.02-2.93.24h0Z"/>
  <path d="m123.06,193c1.48-3.79,3.39-7.41,5.72-10.75s5.07-6.68,8.3-9.11c1.33-1,3.09-2.16,4.83-1.75,2,.47,2.9,2.46,3.23,4.31.75,4.22-.09,8.61-1.56,12.59-1.71,4.61-4.29,8.84-6.98,12.94-.29.43.9.37,1,.36.62-.06,1.28-.28,1.75-.69,2.53-2.15,6.15-1.24,8.76.32,3.28,1.95,5.21,5.16,5.76,8.91.64,4.38-.58,8.86-2.51,12.77-1.73,3.5-4.37,7.98-8.87,7.34s-8.29-4.04-10.9-7.49c-.39-.52-2.66.15-2.79.75-1.49,6.87-3.51,14.74-9.87,18.74-2.92,1.84-6.45,2.23-9.54.5-2.8-1.57-4.83-4.44-5.24-7.64-.48-3.78,1.38-7.68,4.59-9.7.95-.6-.4-.74-.86-.66-3.41.64-6.68-1.79-8.82-4.21-2.47-2.78-4.13-6.37-5.07-9.94-.88-3.34-1.28-7.06-.51-10.46.68-2.96,2.57-6.21,5.98-6.16,3.92.06,7.69,2.32,10.86,4.41.61.4,3.28-.54,2.72-1.01-2.71-2.32-3.74-5.78-4.27-9.2-.47-3.01-1.03-6.59.2-9.49.26-.61.65-1.35,1.23-1.72.82-.52,2.09.08,2.87.46,1.66.81,3.19,2.02,4.54,3.27,2.79,2.57,4.93,5.73,6.33,9.25.3.75,3.14-.16,2.9-.78-1.29-3.23-3.2-6.19-5.65-8.66-2.31-2.33-5.49-5.02-8.96-5-2.89.02-5.52,1.56-6.38,4.38s-.43,6.01,0,8.88c.54,3.58,1.63,7.19,4.47,9.62l2.72-1.01c-3.33-2.19-7.1-4.31-11.16-4.62-3.69-.29-7.67,1.08-9.78,4.25s-2.18,7.83-1.59,11.62c.68,4.36,2.43,8.69,5.18,12.16s6.99,5.99,11.66,5.12l-.86-.66c-3.17,1.99-5.23,5.43-5.32,9.19s2.12,7.36,5.33,9.23c6.94,4.04,15.91-.49,20-6.52,2.85-4.2,4.09-9.23,5.15-14.12l-2.79.75c2.88,3.81,7.09,7.23,11.99,7.76s9.18-2.18,11.78-6.25c5.01-7.85,7.22-20.98-3.04-25.72-4.18-1.93-9.32-1.5-12.87,1.52l2.75-.33c2.77-4.21,5.43-8.57,7.13-13.34,1.49-4.18,2.63-9.63,1.06-13.96s-6.28-3.79-9.68-2.29c-3.99,1.76-7.15,5.28-9.83,8.62-3.34,4.14-6.01,8.76-7.94,13.71-.23.58,2.56.3,2.87-.48h0Z"/>
  <path d="m128.04,225.38c3.04,17.92,4.89,38.71-6.48,54.27-5.4,7.39-12.98,12.7-20.23,18.11s-14.29,11.41-19.91,18.78c-6.33,8.3-11.01,17.82-13.7,27.9-.24.89,2.65.47,2.88-.42,2.43-9.1,6.46-17.73,11.92-25.4s12.28-13.93,19.81-19.57c7.23-5.43,14.85-10.63,20.58-17.72s8.86-15.96,9.87-25.06c1.17-10.56-.08-21.24-1.84-31.66-.14-.84-3.06-.17-2.9.78h0Z"/>
  <path d="m46.47,126c-2.37.63-4.62-.92-6.27-2.48-1.82-1.73-3.26-3.8-4.67-5.88-2.89-4.25-5.81-9.24-4.84-14.58.8-4.39,4.18-8.11,8.91-6.48,5.01,1.73,8.15,6.88,10.11,11.49,2.46,5.78,3.57,12.02,4.66,18.17.22,1.25,2.68.35,2.91-.53.62-2.43,1.94-4.64,3.84-6.28.85-.74,1.94-1.54,3.04-1.86,1.36-.39,1.98,1.13,2.39,2.17,2.18,5.64,2.94,11.8,2.38,17.81-.13,1.37,2.44.77,2.83-.03,1.62-3.33,6.22-2.78,8.38-.3,3.04,3.48,2.4,8.85.28,12.61-1.15,2.04-2.76,3.8-4.69,5.13-.9.62-1.86,1.12-2.87,1.53-.92.38-1.9.76-2.6,1.5-.82.86-.87,1.92-.85,3.06.02,1.34.06,2.68.03,4.03-.06,2.63-.32,5.4-1.51,7.78-.95,1.91-2.63,3.77-4.74,4.37s-4.11-.49-5.45-2.06c-3.44-4.01-2.67-9.57-2.88-14.46-.05-1.05.04-2.44-.56-3.37s-1.71-1.17-2.73-1.37c-2.48-.5-4.96-.97-7.41-1.6-4.59-1.18-9.39-2.98-12.63-6.6-3-3.36-4.98-8.45-3.35-12.89,1.81-4.95,7.33-6.5,12.02-7.2.57-.09,1.55-.39,1.62-1.09s-.78-.88-1.3-.81c-4.97.75-10.47,2.17-13.66,6.37-2.88,3.8-2.63,8.85-.58,12.97,2.35,4.71,6.58,7.66,11.39,9.52,2.74,1.06,5.61,1.75,8.48,2.36,1.37.29,2.75.53,4.12.83.73.16,1.25.31,1.47,1.1.25.87.21,1.89.23,2.78.15,5.34-.46,11.6,3.96,15.54,3.9,3.48,9.61,2.11,12.9-1.51,1.88-2.06,2.86-4.67,3.27-7.4.22-1.47.28-2.96.28-4.44,0-.75,0-1.49-.02-2.24s-.23-1.85.06-2.56c.4-.95,2.05-1.25,2.9-1.67,1.19-.6,2.33-1.31,3.37-2.14,2.05-1.65,3.78-3.71,4.94-6.08,2.24-4.58,2.41-11.45-2.36-14.56-3.78-2.47-10.13-1.65-12.22,2.67l2.83-.03c.35-3.82.2-7.68-.5-11.45-.35-1.88-.83-3.74-1.44-5.55-.46-1.37-.95-3-2.13-3.95-2.51-2.01-6.29.19-8.37,1.86-2.5,2.01-4.26,4.72-5.05,7.82l2.91-.53c-1.15-6.5-2.32-13.11-5.09-19.15-2.33-5.08-6.1-10.51-11.91-11.82-5.29-1.2-10.23,1.89-11.98,6.91-2.05,5.89.75,11.68,3.96,16.55s7.84,11.6,14.68,9.8c.51-.13,1.39-.61,1.21-1.26s-1.19-.62-1.68-.49h0Z"/>
  <path d="m46.59,158.84c-4.31,5.63-6.36,12.52-7.49,19.43-1.28,7.84-1.78,15.83-2.55,23.74-.83,8.57-1.66,17.14-2.49,25.71-.75,7.78-1.23,15.7-3.19,23.3-.96,3.73-2.31,7.37-4.27,10.7-1.84,3.12-4.18,5.91-6.71,8.49-5.04,5.14-11.02,9.44-15.57,15.05-2.3,2.83-3.86,6.06-4.2,9.73-.37,4.01.12,8.15.52,12.15.74,7.36,1.76,14.89,4.05,21.95,1.99,6.1,5.19,12.01,10.49,15.84,3.04,2.2,6.54,3.59,10.01,4.96,4.02,1.59,8.04,3.18,12.05,4.76,1.97.78,3.94,1.56,5.91,2.34.65.26,1.47.11,2.05-.27.35-.23.91-.89.25-1.15-3.94-1.56-7.88-3.12-11.83-4.67-3.67-1.45-7.4-2.79-10.98-4.44-3.25-1.49-6.18-3.41-8.57-6.1-2.14-2.4-3.76-5.2-5.03-8.14-2.79-6.5-3.97-13.62-4.9-20.58-.54-4.05-.94-8.13-1.16-12.21s.03-7.9,2.13-11.41c1.86-3.11,4.55-5.63,7.19-8.08s5.28-4.73,7.84-7.18c5.17-4.94,9.56-10.41,12.08-17.17s3.4-14.62,4.12-22.06c.82-8.48,1.64-16.95,2.46-25.43s1.48-16.32,2.4-24.46c.78-6.93,1.94-14.09,5.24-20.32.82-1.54,1.76-3.01,2.82-4.39.43-.56-.37-.85-.79-.88-.67-.04-1.49.25-1.91.8h0Z"/>
  <path d="m56.73,270.11l-.08,2.59.81-1.01-1.25.51,1.48-.11c-2.49-.95-3.74-3.51-4.06-6.02-.2-1.55-.05-3.16.19-4.7.19-1.16.49-2.36,1.09-3.38.48-.8,1.2-1.53,2.2-1.5,1.27.03,2.5.98,3.36,1.84,2.01,1.99,3.47,4.85,3.87,7.65s-.55,5.97-3.06,7.36c-.55.3-1.08.94-.66,1.57.39.59,1.43.56,1.98.26,3.07-1.7,4.89-5.05,4.77-8.55-.13-3.8-2.09-7.67-4.89-10.21s-6.92-3.02-9.52-.01c-2.26,2.62-2.63,7.03-2.25,10.3.23,2.01,1.01,3.99,2.41,5.48.64.68,1.35,1.23,2.19,1.65.45.23.93.45,1.45.42.67-.04,1.4-.47,2.02-.72.37-.15.8-.58.81-1.01l.08-2.59c.05-1.57-2.9-1.2-2.94.19h0Z"/>
  <path d="m56.84,255.28c-1.72-2.5-2.64-5.46-2.64-8.49,0-1.66.29-3.31.86-4.86.38-1.05,1.29-3.47,2.56-3.67s2.8,1.08,3.52,1.95c1.01,1.22,1.46,2.85,1.66,4.38.44,3.41-.32,6.86.51,10.23.19.78,2.63-.19,2.88-.64,1.4-2.46,3.8-3.48,6.4-2.16,2.41,1.22,3.69,3.62,3.78,6.28.16,5.08-2.93,12.1-9.04,9.77-.41-.16-2.88.27-2.64.96,1.18,3.39,1.63,7,1.19,10.56-.21,1.73-.61,3.49-1.36,5.07-.63,1.34-1.76,3.1-3.32,3.46-3.4.77-4.68-3.53-4.76-6.02-.04-1.35.07-2.74.42-4.05.31-1.16.93-2.86,2.15-3.36l-1.82-.25c-1.9,1.67-5.24-.36-6.82-1.7-2.13-1.81-3.67-4.33-4.56-6.97s-1.2-5.65-.5-8.38,2.79-5.85,5.76-3.98c.5.31,1.37.04,1.87-.15.16-.06,1.3-.57.86-.85-3-1.89-7.59-.49-9.72,2.14-2.55,3.16-2.43,7.92-1.29,11.61s3.6,7.34,7.13,9.06c3.18,1.55,7.16,1.42,9.9-.98.76-.67-1.62-.34-1.82-.25-2.69,1.1-3.91,3.29-4.3,6.11-.36,2.56-.35,5.78,1.54,7.78,2.1,2.23,5.79,1.66,8.26.41,2.92-1.48,4.36-4.49,4.98-7.58.84-4.16.5-8.47-.89-12.47l-2.64.96c3.21,1.22,7.21.48,9.99-1.48,3.23-2.27,4.59-6.84,4.3-10.66s-3.18-6.61-6.9-6.9c-3.48-.27-7.27,1.42-9.01,4.5l2.88-.64c-1-4.07.37-8.38-.98-12.38-1.14-3.37-4.37-5.28-7.86-4.38-3.69.95-5.35,4.46-5.88,7.99-.56,3.78.29,7.63,2.46,10.79.5.73,3.15-.41,2.9-.78h0Z"/>
  <path d="m53.77,275.29c-8.21,7.23-12.03,18.8-9.63,29.48,2.61,11.59,11.19,20.79,13.58,32.46,1.19,5.82.91,12.32-2.94,17.15-1.12,1.4,1.64,1.65,2.39.72,7.07-8.88,3.8-21.02-.8-30.22-2.7-5.39-5.87-10.57-7.95-16.25s-2.65-11.17-1.43-16.88c1.3-6.08,4.5-11.63,9.17-15.74.51-.45.21-1.07-.34-1.27-.7-.25-1.53.09-2.05.55h0Z"/>
  <path d="m68.37,341.93c-1.72.77-2.25,2.15-2.7,3.86s-1.13,3.22-2.09,4.65c-1.79,2.65-4.41,4.84-7.49,5.79-.4.12-1.41.46-1.27,1.05s1.29.38,1.63.28c3.5-1.07,6.63-3.09,8.94-5.94,1.08-1.33,1.96-2.83,2.59-4.43.3-.77.51-1.56.73-2.35.1-.38.21-.76.36-1.12.08-.19.17-.37.3-.54.08-.1.41-.31.12-.18.36-.16,1.18-.59.79-1.09-.36-.46-1.5-.17-1.91.01h0Z"/>
  <path d="m142.25,349.71c-.34,1.24-1.18,1.64-2.38,1.28-1.48-.45-2.38-1.85-2.8-3.27-.94-3.2.07-6.85,1.35-9.82,2.72-6.35,8.14-11.28,13.87-14.92,6.6-4.18,13.91-7.07,20.68-10.94,6.25-3.57,11.83-8.1,16.34-13.74,4.86-6.08,8.38-13.2,10.23-20.76.23-.95-2.66-.51-2.89.4-1.82,7.43-5.24,14.39-10.02,20.37-5.1,6.38-11.54,11.04-18.74,14.8s-15,6.99-21.56,12.06c-5.6,4.33-10.57,10.13-12.11,17.2-.72,3.3-.75,8.18,2.92,9.78,2.64,1.15,7.15.26,8-2.86.25-.93-2.64-.51-2.89.4h0Z"/>
  <path d="m196.95,276.09c-.75,1.15-2.59.88-3.75.72-1.99-.28-3.95-.79-5.85-1.45-2.97-1.02-6.83-2.5-8.26-5.55-1.74-3.7,2.35-5.76,5.46-5.69,3.71.09,7.13,2.08,10.08,4.17,1.65,1.17,3.47,2.43,4.83,3.93.77.85,2.18,3.41.47,4.13-.53.22-1.1.87-.7,1.44s1.42.42,1.96.19c1.78-.75,2.72-2.61,2.33-4.5-.46-2.2-2.61-3.69-4.25-5-3.92-3.13-8.52-6.19-13.7-6.39-3.94-.16-9.94,1.73-9.81,6.61.12,4.59,5.64,7.02,9.28,8.35,2.66.98,5.63,1.82,8.48,1.94,2.4.09,4.81-.49,6.19-2.59.4-.61-.35-1.09-.87-1.16-.74-.1-1.49.26-1.89.87h0Z"/>
  <path d="m186.81,262.12l-1.83,1.79,2.75-.53c-.78-3.21-.7-6.57.3-9.73.48-1.52,1.17-2.98,2.04-4.32.75-1.15,2.11-3.25,3.6-3.49s2.96,1.67,3.46,2.85c.67,1.58.59,3.33.32,4.99-.64,3.91-1.73,7.79-2.62,11.65-.15.65,2.01-.02,2.25-.13,2.75-1.31,5.76-2.49,8.84-1.59,2.27.66,4.4,2.4,5.09,4.72s-.44,4.82-2.33,6.31c-2.49,1.96-5.9,1.6-8.88,1.46-.36-.02-2.55.34-2.4.94,1.4,5.7-4.43,12.69-10.4,11.86-2.77-.39-4.87-2.48-4.56-5.4.4-3.83,3.98-5.87,7.03-7.49,1.13-.6-.89-.47-1.2-.39-7.18,1.71-15.25.36-21.56-3.46-2.76-1.67-5.23-4.62-3.29-7.89s5.89-4.29,9.32-4.49c4.34-.26,8.69.68,12.82,1.91.59.18,1.49-.14,2.02-.39.27-.13.97-.5.38-.67-4.36-1.3-8.9-2.19-13.47-1.94-4.07.22-8.59,1.26-11.85,3.84-1.37,1.09-2.56,2.58-2.79,4.36-.25,1.91.8,3.57,2.17,4.81,3.09,2.8,7.7,4.32,11.72,5.12,4.9.98,9.91.75,14.75-.41l-1.2-.39c-2.81,1.5-5.95,3.22-7.23,6.32-1.05,2.54-.43,5.5,2.09,6.86,2.22,1.2,5.03,1.02,7.41.47,2.87-.66,5.56-2.09,7.64-4.2,2.4-2.44,3.98-5.74,3.13-9.19l-2.4.94c3.94.18,8.06.16,11.64-1.71,2.75-1.44,5.22-4.3,4.46-7.61s-3.99-5.27-7.07-5.62c-3.97-.45-7.95.97-11.48,2.65l2.25-.13c.58-2.54,1.16-5.07,1.74-7.61.49-2.13,1.16-4.34,1.13-6.55-.02-1.8-.62-3.59-2-4.8s-3.07-1.24-4.72-.88c-7.97,1.75-10.68,12.26-8.99,19.2.15.63,2.49-.26,2.75-.53l1.83-1.79c.45-.44-.41-.42-.66-.4-.58.05-1.5.24-1.94.67h0Z"/>
  <path d="m823.18,357.1c-2.09-.63-2.27-3.38-2.14-5.2.22-2.93.98-5.9,1.7-8.74,1.45-5.66,3.42-11.17,5.33-16.7,3.66-10.6,7.12-21.67,6.14-33.02-.46-5.39-2.04-10.62-4.87-15.25-2.43-3.98-5.6-7.44-8.92-10.7-7.13-6.99-15-13.28-19.62-22.35-5.45-10.69-6.58-23.11-5.32-34.9.04-.42-2.8-.13-2.9.78-1.13,10.61-.33,21.64,3.79,31.58,1.96,4.72,4.7,9.02,8.05,12.87,3.25,3.73,6.93,7.03,10.53,10.42s7.19,6.87,10.06,10.92c3.06,4.32,5.09,9.21,5.94,14.44,1.86,11.48-1.39,22.97-5.07,33.74-2.16,6.33-4.49,12.62-6.12,19.11-.73,2.92-1.56,6.03-1.65,9.05-.07,2.09.46,4.42,2.69,5.1.62.19,1.48-.08,2.03-.36.28-.14.97-.6.34-.79h0Z"/>
  <path d="m793.74,207.79l-1.15.19.4-1.16c-3.99,3.06-9.22,4.14-14.11,2.87-2.3-.59-4.69-1.66-6.28-3.47-1.87-2.12-1.7-4.68-.28-7.01,2.59-4.25,7.31-7.17,12.1-8.24,2.32-.52,4.93-.67,7.27-.15s3.51,2.58,3.48,4.94c-.09,5.55-4.67,10.55-9.25,13.11-.52.29-.73.96-.2,1.33.6.42,1.51.09,2.07-.22,4.9-2.74,9.73-8.01,10.26-13.84.23-2.5-.49-5.18-2.84-6.44-2.57-1.39-6.18-1.26-9-.88-5.98.8-11.76,3.83-15.51,8.6-1.84,2.35-3.3,5.4-1.89,8.33,1.25,2.59,3.95,4.16,6.54,5.14,6.41,2.43,14.09,1.19,19.5-2.96.29-.22.8-.78.4-1.16-1.07-1.03-2.96-.78-3.9.34-1.14,1.37,1.64,1.58,2.38.68h0Z"/>
  <path d="m851.2,143.96c-.61,2.3-2.29,4.57-4.58,5.43-2.12.79-4.56-.21-5.73-2.09-2.5-4.03-.2-9.68,2.23-13.18,2.97-4.27,7.43-7.2,12.15-9.23,1.1-.47,2.76-1.48,3.96-.95.9.4,1.35,1.33,1.53,2.24.42,2.13-.36,4.44-1.09,6.42-1.88,5.11-5.32,9.59-9.82,12.65-.48.33-.34.55.17.63.6.1,1.55-.21,2.05-.55,4.91-3.34,8.72-8.16,10.66-13.8.75-2.18,1.79-5.37.4-7.52-1.56-2.42-5.09-1.26-7.22-.45-5.78,2.2-11.4,5.38-15.18,10.41-2.89,3.86-6.18,11.7-1.48,15.54,2.31,1.89,5.78,1.49,8.38.52,3-1.11,5.6-3.43,6.44-6.59.16-.6-2.66-.22-2.86.51h0Z"/>
  <path d="m792.6,204.78l-.45-.45c-.09-.06-.19-.09-.3-.09-.15-.03-.29-.03-.44-.01-.19.01-.37.04-.55.09-.2.04-.39.09-.58.16l-.33.14c-.17.08-.33.18-.47.31l-.12.15c-.05.1-.02.19.07.25l.45.45c.09.06.19.09.3.09.15.03.29.03.44.01.19-.01.37-.04.55-.09.2-.04.39-.09.58-.16l.33-.14c.17-.08.33-.18.47-.31l.12-.15c.05-.1.02-.19-.07-.25h0Z"/>
  <path d="m791.47,206.12c2.89,3.05,7.29,3.71,11.26,2.81,4.29-.97,7.75-3.99,9.58-7.96,1.78-3.88,2.61-9.52.56-13.46s-6.83-4.77-10.85-4.5c-5.55.38-10.93,2.7-15.27,6.12l2.62-.13c-.9-5.59-2.8-12.94-9.41-13.94-3.85-.59-7.61,1.11-10.83,3.05-2.79,1.68-5.88,3.66-7.56,6.55-1.8,3.1-1.06,6.41.92,9.22.51.72,1.08,1.4,1.67,2.05s1.86,1.53,1.67,2.51c-.18.92-1.41,1.87-2.02,2.52-.72.76-1.45,1.51-2.15,2.27-2.58,2.8-5.11,6.06-5.5,9.98-.32,3.22,1.1,6.55,4.09,8.04,3.93,1.96,7.76-.6,11-2.68,4.39-2.81,8.78-5.63,13.17-8.44l-2.26-.51c-2.28,4.05-4.21,8.44-5.33,12.96-.39,1.59-.33,3.44,1.57,3.9,1.73.42,3.6-.46,4.95-1.47,6.39-4.72,11-11.8,13.05-19.45.29-1.09-2.63-.68-2.9.35-1.67,6.23-5.06,11.94-9.8,16.34-.58.53-1.17,1.05-1.78,1.54-.35.28-1.17,1.1-1.69,1.06-1.6-.11-.15-3.89.07-4.61,1.14-3.67,2.67-7.19,4.56-10.53.7-1.24-1.8-.8-2.26-.51-3.35,2.14-6.69,4.29-10.04,6.43-1.53.98-3.06,1.97-4.6,2.95-1.36.86-2.89,1.99-4.59,1.54-3-.79-4.56-4.18-4.35-7.06.27-3.66,2.55-6.72,4.95-9.32,1.11-1.21,2.28-2.37,3.37-3.59.92-1.03,1.91-2.19,1.08-3.59-.74-1.24-2.03-2.2-2.91-3.36-1.06-1.4-1.94-3-2.11-4.78-.28-3.02,1.85-5.41,4.09-7.13,2.52-1.93,5.71-4.11,8.91-4.59,7.1-1.08,9.22,7.85,10.05,13.06.17,1.03,2.2.2,2.62-.13,3.15-2.48,6.92-4.19,10.89-4.79,3.23-.49,7.16-.22,9.38,2.5,2.39,2.93,1.98,7.87,1.03,11.28s-2.96,6.64-6.18,8.13-7.48.88-10.04-1.82c-.72-.76-3.48.32-2.69,1.15h0Z"/>
  <path d="m838.79,134.17c.59-5.66,3.28-10.99,7.56-14.76,1.66-1.46,5.17-4.59,7.09-2.06,1.41,1.87,1.34,4.54,2.6,6.53.47.74,2.36.08,2.7-.53,2.07-3.73,4.31-7.58,7.69-10.28,1.64-1.32,3.6-2.36,5.68-2.72,1.64-.29,4.57-.42,5.17,1.6.51,1.71-.66,3.62-1.58,4.96-1.21,1.77-2.53,3.47-3.93,5.1-2.83,3.3-6.03,6.27-9.49,8.9-.39.3-.36.71.02.97.44.3,1.3.11,1.73-.1,2.84-1.34,7.15-3.16,10.28-1.71,4.28,1.98-.73,6.38-2.7,7.97-5.73,4.63-12.99,7.33-20.35,7.55-.71.02-1.73.25-2.01,1.02-1.15,3.09-2.85,5.98-5.04,8.46-1.97,2.23-4.56,4.7-7.52,5.46-3.22.82-5.5-1.74-5.58-4.81-.1-3.46,2.41-6.24,4.6-8.62.74-.8-.23-1.15-.97-1.08-2.22.22-5.27.35-6.22-2.2-.77-2.07,1.45-4.22,2.98-5.31,3.25-2.31,7.48-2.84,11.33-3.32.51-.06,1.56-.37,1.64-1s-.82-.7-1.26-.65c-5.24.66-11.12,1.58-15.12,5.35-1.79,1.69-3.64,4.27-1.98,6.65,1.82,2.63,5.45,2.41,8.24,2.13l-.97-1.08c-2.62,2.86-5.49,6.1-5.14,10.26.33,3.87,3.66,5.93,7.35,5.47,3.98-.49,7.43-3.06,10.14-5.86s5-6.38,6.42-10.2l-2.01,1.02c7.29-.22,14.47-2.39,20.59-6.39,1.45-.95,2.84-1.99,4.15-3.12s2.77-2.4,3.54-4.01c1.43-2.99-.83-5.18-3.68-5.68-3.95-.69-8.34.8-11.86,2.47l1.74.87c3.25-2.48,6.26-5.25,8.97-8.3,1.3-1.46,2.54-2.98,3.7-4.55,1.06-1.44,2.16-2.91,2.72-4.64.42-1.32.5-2.91-.51-3.99-1.11-1.19-3.06-1.38-4.6-1.41-3.88-.05-7.62,1.53-10.63,3.91-3.6,2.84-6.02,6.88-8.22,10.84l2.7-.53c-1.45-2.3-1.09-5.84-3.59-7.44-3.01-1.93-6.95.43-9.41,2.24-5.46,4.01-9.14,10.23-9.84,16.98-.12,1.18,2.8.66,2.9-.35h0Z"/>
  <path d="m850.2,146.05c-.53,11.73-1.8,23.41-3.84,34.97-2.01,11.42-5.1,22.66-6.52,34.18-.69,5.61-.91,11.27-.48,16.91s1.44,11.25,2.53,16.81c2.17,11.11,4.37,22.12,4.12,33.51-.28,12.33-2.81,24.55-7.42,35.99-.39.96,2.51.63,2.9-.35,4.09-10.16,6.55-20.95,7.24-31.89s-.77-22.01-2.93-32.92c-2.24-11.31-4.43-22.53-3.5-34.11.93-11.56,3.97-22.8,6.16-34.15,2.5-12.97,4.04-26.11,4.64-39.3.06-1.22-2.86-.65-2.9.35h0Z"/>
  <path d="m819.69,359.87c.49-.15.17-.02-.15-.29-.25-.2-.43-.48-.58-.76-.25-.46-.42-.97-.52-1.48-.32-1.51-.04-3.14.17-4.65.44-3.15,1.24-6.25,2.32-9.24,2.25-6.25,5.67-12.02,9.59-17.36s8.56-10.57,13.02-15.69,8.75-10.29,12.84-15.66c8.09-10.62,15.58-21.82,21.95-33.56,3.29-6.07,5.77-12.35,6.63-19.24s.66-14,.47-20.96c-.42-16.18-1.99-32.32-4.67-48.28-.12-.71-3.04-.06-2.9.78,2.46,14.67,3.99,29.49,4.55,44.35.27,7.2.52,14.49-.03,21.68-.55,7.15-2.58,13.74-5.85,20.11-6.37,12.41-14.35,24.17-22.79,35.24-4.19,5.5-8.61,10.8-13.15,16.01s-9.19,10.44-13.26,16.09c-4.32,5.99-8.03,12.51-10.15,19.62-.91,3.05-4.56,16.58,2.81,14.33.31-.09,1.44-.42,1.31-.92s-1.33-.23-1.59-.15h0Z"/>
  <path d="m882.15,170.85c-2.1,1.53-4.72,3.63-7.45,2.48-1.25-.53-2.11-1.63-2.23-2.99-.13-1.44.57-2.87,1.36-4.02,1.52-2.2,4.06-4.5,6.82-4.81,2.39-.27,5.05,1.28,5.72,3.65,1.06,3.78-2.46,6.51-5.35,8.08-.49.26-.77.88-.23,1.23.6.38,1.51.05,2.06-.24,3.35-1.81,7.06-4.83,6.56-9.09-.41-3.52-4.22-5.48-7.46-5.42-4.07.07-7.72,2.57-10.21,5.65-1.15,1.42-2.16,3.19-2.2,5.06-.03,1.73.82,3.2,2.28,4.1,4.09,2.49,8.81-.23,12.16-2.66.43-.31.81-.86.23-1.23-.54-.35-1.58-.11-2.06.24h0Z"/>
  <path d="m880.91,159.74c-1.69-.22,1.47-4.96,1.91-5.48,1.41-1.69,3.39-3.23,5.56-3.74.85-.2,2.11-.08,2.34.95.25,1.11-1.32,2.8-1.88,3.68-1.59,2.53-3.19,5.06-4.78,7.59-.26.41,1.1.21,1.14.2,2.57-.58,5.15-1.17,7.72-1.75,1.87-.43,4.28-1.39,6.2-.65,2.17.84,1.51,3.36.62,4.95-1.05,1.88-2.77,3.33-4.69,4.27-4.14,2.03-9.41,1.54-13.23,4.23-1.86,1.31-3.07,3.4-4.54,5.1-1.61,1.86-3.59,3.82-5.98,4.61-1.11.37-2.99.55-4-.19-1.08-.8-.48-2.36-.08-3.36.97-2.41,2.49-4.54,4.45-6.25.09-.08.23-.24.07-.34-3.33-2.02-7.5-5.25-5.29-9.63s7.9-5.15,12.16-3.18c.53.24,1.34-.03,1.85-.21.11-.04,1.29-.56.88-.75-5.01-2.32-12.08-1.45-16.1,2.5-1.79,1.76-2.91,4.29-1.95,6.76s3.5,4.13,5.71,5.46l.07-.34c-1.94,1.7-3.52,3.77-4.54,6.15-.39.92-.99,2.22-.64,3.25.37,1.1,1.66,1.33,2.67,1.44,5.54.61,10.45-2.78,13.86-6.81.88-1.05,1.67-2.18,2.57-3.2,1.19-1.35,2.52-1.83,4.23-2.21,2.93-.65,5.88-1.24,8.66-2.4,2.2-.92,4.28-2.24,5.8-4.1,1.22-1.49,2.84-4.47,1.1-6.14-1.52-1.47-4.38-1-6.22-.61-3.6.76-7.18,1.63-10.77,2.44l1.14.2c1.12-1.78,2.24-3.56,3.36-5.33,1.03-1.63,2.31-3.27,3.13-5.01,1.54-3.29-4.1-2.42-5.58-2-2.81.79-5.41,2.25-7.38,4.42-.76.83-4.7,6.18-1.93,6.54.66.09,1.42-.12,2.02-.39.19-.09,1.03-.58.38-.67h0Z"/>
  <path d="m227.55,354.61c-4.63-11.8-10.64-23.02-17.87-33.44-.49-.7-3.3.23-2.71,1.08,7.16,10.32,13.09,21.44,17.67,33.13.35.9,3.21.02,2.9-.78h0Z"/>
  <path d="m227.98,355.84c-2.05-16.49.03-33.4,6-48.91,1.68-4.36,3.66-8.59,5.93-12.67.23-.42-1.02-.23-1.14-.21-.47.08-1.44.27-1.71.75-8.05,14.53-12.45,31.01-12.74,47.63-.08,4.74.18,9.48.76,14.19.06.47,2.98-.09,2.9-.78h0Z"/>
  <path d="m230.21,358.63c2.27-8.62,8.02-16.27,15.85-20.58.38-.21.86-.54.33-.84-.48-.28-1.6.11-2.03.35-8.3,4.57-14.6,12.35-17.02,21.55-.19.72,2.66.31,2.87-.48h0Z"/>
  <path d="m689.65,356.46c4.12-7.91.88-17.99-3.8-24.91-4.99-7.38-12.64-12.56-21.15-15.01-4.96-1.43-10.13-1.98-15.28-1.76-.55.02-1.63.2-1.93.74s.25.69.74.67c8.9-.38,17.98,1.79,25.38,6.85,6.67,4.56,11.83,11.39,13.97,19.22,1.32,4.82,1.55,10.11-.81,14.64-.28.54,1,.48,1.21.45.58-.08,1.38-.33,1.67-.89h0Z"/>
  <path d="m692.74,358.51c-2.14-19.23,2.75-39.08,13.37-55.24,2.98-4.54,6.41-8.77,10.22-12.63.5-.5-.42-.74-.76-.75-.7-.02-1.43.27-1.92.76-13.75,13.92-22.29,32.73-24,52.2-.48,5.47-.42,10.98.19,16.44.09.85,3.01.23,2.9-.78h0Z"/>
  <path d="m100.21,356.56c-3.12-10.08-7.2-19.83-12.17-29.14-.65-1.22-3.39-.09-2.64,1.31,4.88,9.13,8.86,18.71,11.91,28.6.43,1.41,3.33.62,2.9-.78h0Z"/>
  <path d="m106.3,354.32c-2.36-2.97-2.11-6.97-1.75-10.52.41-4.08,1.12-8.12,2.1-12.1,2-8.1,5.17-15.86,9.37-23.07.77-1.31-2.17-1.22-2.74-.23-4.36,7.48-7.62,15.58-9.65,24-1.01,4.19-1.72,8.45-2.09,12.74-.31,3.58-.25,7.45,2.1,10.39.74.93,3.52-.16,2.67-1.22h0Z"/>
  <path d="m109.53,361.47c-1.95-.52,2.31-7.95,2.77-8.82,1.68-3.23,3.56-6.36,5.6-9.37,4.07-6.01,8.81-11.57,14.13-16.5,3.02-2.8,6.21-5.39,9.56-7.79.52-.37.26-.83-.26-.96-.69-.17-1.5.16-2.05.55-12.77,9.13-23.24,21.33-30.32,35.34-.91,1.8-2.01,3.71-2.59,5.65-.44,1.46-.26,2.98,1.38,3.42.87.23,3.39-1.08,1.79-1.51h0Z"/>
  <path d="m722.46,360.25c.17-18.55,3.21-37,8.97-54.63.25-.75-2.6-.39-2.88.45-5.79,17.74-8.82,36.3-8.99,54.96,0,.64,2.89.19,2.9-.78h0Z"/>
  <path d="m726.48,355.77c10.57-14.88,21.68-29.37,33.31-43.43,1.16-1.41-1.59-1.84-2.42-.83-11.63,14.06-22.74,28.55-33.31,43.43-1.06,1.49,1.66,1.9,2.42.83h0Z"/>
  <path d="m747.88,354.59c3.21-1.61,5.33-4.36,7.23-7.33,2.17-3.39,4.15-6.91,5.95-10.51,3.66-7.34,6.54-15.08,8.57-23.03,1.12-4.38,1.97-8.81,2.57-13.29.05-.34-2.78-.11-2.9.78-2.09,15.35-7.28,30.25-15.21,43.56-2.02,3.39-4.21,7.58-7.89,9.43-.37.19-.86.47-.35.75.47.26,1.61-.16,2.03-.37h0Z"/>
  <path d="m614.68,299.59c-.02,1.07-.7,1.85-1.79,1.97-1.25.14-2.39-.83-3.14-1.72-2.11-2.51-3.18-6.05-3.85-9.2-.36-1.7-.65-3.47-.6-5.21.03-1.29.28-3.34,1.71-3.9,1.24-.49,2.18,1.16,2.55,2.11.61,1.55.83,3.17,1.63,4.65.59,1.08,2.58.19,2.79-.75.28-1.25.73-2.45,1.36-3.56.47-.83,1.39-2.41,2.47-2.56,2.23-.3,1.04,4.07.71,5.01-1.96,5.6-4.18,11.12-6.59,16.54-.67,1.52,2.24,1.53,2.77.34,1.59-3.57,3.09-7.18,4.49-10.84.7-1.83,1.38-3.66,2.03-5.5.46-1.32.91-2.67.86-4.08-.11-3.2-3.2-4.41-5.91-3.06-2.9,1.45-4.46,4.92-5.13,7.92l2.79-.75c-1.46-2.68-1.23-6.89-4.99-7.64-3.53-.71-6.21,2.45-6.46,5.69-.3,3.7.71,7.72,2.05,11.14,1.15,2.92,2.83,6.4,6.12,7.32,2.79.78,7-.82,7.06-4.14.02-1.52-2.92-1.1-2.94.22h0Z"/>
  <path d="m727.57,277.45c-7.46-2.76-7.75-11.73-5.97-18.28.46-1.68,1.08-3.31,1.9-4.84.39-.74.82-1.45,1.29-2.14.23-.33.68-.69.83-1.05.41-.3.35-.35-.16-.14.27.07.52.18.75.33,2.97,1.71,4.71,5.48,5.17,8.74.1.69,2.51-.19,2.76-.49.88-1.08,1.88-2.08,3.03-2.88.39-.27,1.36-1.11,1.83-1.09.5.03.8.97.88,1.38.3,1.54-.56,3.01-1.4,4.22-.9,1.3-1.88,2.55-2.86,3.8-3.9,4.97-8.2,9.62-12.79,13.95-.48.45.43.49.69.48.62-.03,1.47-.25,1.94-.69,5.67-5.35,10.93-11.2,15.51-17.51.99-1.37,2.11-3.03,1.86-4.81-.22-1.59-1.4-2.22-2.9-2.03-3.25.42-6.4,2.94-8.41,5.4l2.76-.49c-.3-2.12-1.06-4.13-2.29-5.88-1.05-1.5-2.6-3.37-4.54-3.6-4.25-.51-6.55,4-7.86,7.3-1.53,3.87-2.23,8.42-1.6,12.56s3.24,7.46,7.19,8.92c.58.21,1.51-.11,2.03-.37.31-.15.95-.54.35-.76h0Z"/>
  <path d="m298.37,326.43c.12.04.17.11.14.22-.17.38.06.29.69-.27-.04-.09-.82-.19-.91-.22-.7-.18-1.4-.39-2.08-.63-1.27-.45-2.51-1.02-3.67-1.7-2.35-1.37-4.38-3.27-5.77-5.62-.7-1.18-1.2-2.49-1.49-3.84-.12-.59-.21-1.18-.24-1.78-.02-.23-.02-.45,0-.68-.94.03-1.17.11-.68.24.2.18.58.29.82.42,2.71,1.45,5.28,3.15,7.68,5.07.49.4,1.17.35,1.74.14.33-.12,1.3-.6,1.05-1.12-.91-1.86-2.04-4.36-.7-6.3.15-.21.43-.6.68-.65.41-.07.99.34,1.3.56.86.62,1.54,1.59,2.01,2.53,1.03,2.04,1.5,4.39,1.82,6.63.38,2.6.42,5.22.16,7.83-.12,1.25,2.8.74,2.91-.33.32-3.29.19-6.63-.44-9.87-.53-2.69-1.32-5.72-3.41-7.65s-5.28-1.96-7.24.17c-2.13,2.32-1.21,5.35.02,7.85l2.79-.97c-2.57-2.06-5.31-3.9-8.22-5.45-1.33-.71-2.85-1.09-4.22-.22-1.29.82-1.04,2.44-.83,3.76.99,6.16,6.18,10.45,11.75,12.48,1.54.56,3.39,1.3,5.05,1.05,1.04-.16,3.42-1.62,1.98-2.84-.52-.44-1.34-.34-1.93-.08-.32.14-1.28.8-.75,1.25h0Z"/>
  <path d="m59.52,21.36c-3.2,4.01-8.39-1.04-10.16-3.97-1.26-2.09-2.15-4.41-2.62-6.81-.11-.57-.04-1.15-.12-1.7l.08-.25-1.28.47s.65.79.64.78c.76,1.17,1.41,2.43,2.1,3.64.44.77,2.65.15,2.89-.61.84-2.67,1.68-5.35,2.53-8.02.33-1.02.67-2.15,1.4-2.97.43-.47.62-.59,1.18-.19.45.32.67.87.8,1.39.27,1.09.18,2.27.19,3.38,0,1.35.02,2.69.03,4.04.02,2.84.04,5.67.06,8.51,0,.69,2.9.2,2.9-.78-.03-3.54-.05-7.09-.08-10.63-.02-2.28.75-6.61-2.18-7.45-2.66-.77-5.46,1.05-6.54,3.4-.64,1.39-1.01,2.93-1.47,4.38-.57,1.79-1.13,3.59-1.7,5.38l2.89-.61c-.56-.97-1.12-1.94-1.68-2.91-.35-.6-.69-1.34-1.25-1.79-1.09-.87-3.24-.45-4.08.63-.92,1.18-.13,3.29.23,4.52.5,1.75,1.24,3.43,2.18,4.98,1.64,2.71,4.01,5.2,7.23,5.85,2.96.6,6.55-.31,8.48-2.73.42-.52-.36-.66-.74-.66-.61,0-1.52.24-1.93.74h0Z"/>
  <path d="m54.76,214.04h-2.9c.44.21.88.44,1.32.66-.8-4.37.42-9.02,3.22-12.46.67-.83,1.42-1.58,2.26-2.24.22-.17.51-.33.71-.52l.25-.16c-.54-.24-.76-.23-.64.02-.03.08.07.47.07.6,0,.2-.04.39-.08.58-.56,2.93-1.56,5.83-2.65,8.61-.48,1.23,1.27,1.39,2.03,1.02,1.85-.9,4.1-1.69,6.19-1.62,1.16.04.47,1.11,0,1.67-.65.78-1.35,1.51-2.11,2.18-2.97,2.63-6.54,4.38-10.42,5.16-.59.12-1.35.71-1.18,1.38.18.73,1.16.72,1.72.61,5.31-1.06,10.26-3.84,13.9-7.86.78-.86,1.73-1.91,1.7-3.16-.03-1.39-1.35-2-2.56-2.1-2.84-.23-5.99.8-8.52,2.02l2.03,1.02c.7-1.78,1.31-3.58,1.85-5.41.43-1.46,1.09-3.16,1.05-4.69s-1.25-2.37-2.77-2.07c-1.42.29-2.71,1.5-3.73,2.46-4.23,3.98-6.27,10.01-5.21,15.73.11.58.87.67,1.32.68h2.9c.63.01,1.53-.48,1.6-1.16.08-.76-.77-.95-1.34-.95h0Z"/>
  <path d="m11.63,224.27c-.34.59.1.52,1.32-.2-.12-.02-.24-.05-.35-.09-.27-.12-.53-.23-.77-.4-.46-.31-.83-.74-1.21-1.15-1.02-1.12-1.92-2.35-2.71-3.65-.72-1.2-1.35-2.45-1.86-3.75-.2-.51-1.43-3.17-.75-3.6l-1.38.48.3-.06-.92.04c.94.14,1.9.9,2.72,1.36.89.49,1.78.99,2.67,1.48.5.28,2.64-.1,2.79-.75.26-1.06.52-2.12.78-3.19s.4-2.13.81-3.09c.03-.08.07-.16.11-.23.32-.53-.16-.47-1.42.16.06.13.25.24.33.38.18.3.24.67.29,1,.18,1.16.24,2.36.34,3.53.37,4.69.45,9.4.26,14.1-.01.36,2.86.03,2.9-.78.24-5.8.21-11.76-.58-17.52-.1-.75-.34-1.59-1.15-1.83-1-.29-2.57.18-3.33.86s-.9,1.92-1.14,2.88c-.35,1.42-.69,2.83-1.04,4.25l2.79-.75c-1.45-.8-2.89-1.62-4.34-2.41-1.3-.71-2.67-.72-3.99.04-1.09.63-.85,1.7-.53,2.73.4,1.28.9,2.53,1.5,3.74,1.14,2.28,2.69,4.71,4.64,6.39.78.68,1.79,1.02,2.82.93s2.46-.44,2.94-1.45c.22-.45-1-.26-1.15-.23-.45.08-1.47.28-1.71.76h0Z"/>
  <path d="m125.53,131.91l.16.26c-.18.51.08.56.78.15-.01-.04-1.06-.69-1.19-.79-.66-.51-1.33-1.02-2.03-1.48-1.34-.89-2.75-1.68-4.21-2.35-2.99-1.37-6.24-2.25-9.51-2.59-3.1-.32-6.57-.38-9.3,1.35-2.19,1.39-3.47,3.81-3.62,6.37-.36,6.11,5.48,10.9,10.66,12.89,5.52,2.12,12.12,1.8,17.07-1.62,2.7-1.87,4.87-4.84,5.02-8.21.14-3.07-1.48-5.98-4.26-7.33-.73-.36-3.4.76-2.34,1.28,2.43,1.19,3.78,3.93,3.7,6.57-.08,2.81-1.75,5.4-3.94,7.06-4.45,3.38-10.73,2.41-15.34-.14s-9.08-7.57-7.31-13.07c.36-1.1.95-2.15,1.83-2.92,1.18-1.02,2.75-.98,4.22-.94,3.02.09,6.01.73,8.83,1.78,1.63.61,3.22,1.37,4.71,2.27s2.66,2.06,4.1,2.88c1.18.68,2.71.61,3.87-.1.84-.51,1.58-1.51.79-2.38-.59-.64-3.33.39-2.71,1.07h0Z"/>
  <path d="m100.3,126.32c-.46-2.2-2.15-3.96-4.17-4.85-2.45-1.09-5.23-.9-7.6.3-.41.21-.85.81-.26,1.09.63.31,1.48,0,2.05-.28-.28.14.03,0,.1-.04.15-.06.3-.11.06-.03.11-.03.22-.07.33-.1.08-.02.43-.06.06-.02.11-.01.23-.04.34-.05.05,0,.42-.01.09-.01.23,0,.46,0,.69,0,.26.01-.15-.03.14.02.11.02.23.03.34.06.21.04.42.09.62.15.07.02.07.02.02,0,.06.02.11.04.17.06.11.04.22.08.33.12.22.09.43.19.64.29,1.59.83,2.8,2.29,3.16,4.05.2.96,3.11.24,2.9-.78h0Z"/>
  <path d="m111.48,132.11c-.94-3.8-2.06-7.79-3.93-11.25-1.43-2.64-3.65-5.06-6.89-4.94-.68.02-1.47.17-2.05.55-.41.27-.45.58.15.56,2.99-.11,5.02,2.84,6.2,5.22,1.65,3.33,2.73,7.04,3.62,10.64.14.56,3.05-.18,2.9-.78h0Z"/>
  <path d="m98.57,114.59s-.19.05-.2.06c0,.01.31-.07.14-.03-.07.02-.25-.02-.07,0,.24.04-.03-.03-.02-.01h-.05c-.09-.02-.07-.01.08,0-.05-.02-.1-.02-.15-.04-.03,0-.23-.08-.11-.03.11.04-.08-.04-.1-.05-.42-.22-.71-.48-.99-.95-.07-.12-.17-.35-.22-.57-.07-.28-.11-.56-.09-.85.04-.57.19-1.1.44-1.58.13-.26.29-.51.46-.75.07-.11.02-.04,0-.02.05-.07.1-.13.16-.19.04-.05.09-.1.13-.15.05-.06.16-.23.07-.1.04-.07.23-.09,0-.02,0,0-.31.1-.15.05.19-.05-.23.02-.27.03-.17.03-.08,0-.01,0h-.08c-.11-.03-.11-.03,0,0,.02,0,.17.07.03,0-.12-.06.16.11.21.15.13.09-.1-.1.02.02.03.03.07.07.1.1.08.08.15.18.22.27.17.22.24.35.33.56.2.47.32.98.34,1.49.04,1.48-.31,2.97-.99,4.28-.31.6.28,1.01.83,1.03.64.03,1.57-.21,1.9-.84.83-1.6,1.24-3.35,1.16-5.14-.06-1.32-.68-2.83-1.91-3.47-.91-.47-2.03-.4-2.95.02s-1.55,1.17-2.07,1.98c-.82,1.28-1.28,3.06-.56,4.49.88,1.76,2.96,2.56,4.82,1.94.49-.16,1.4-.57,1.22-1.25-.17-.63-1.21-.63-1.68-.47h0Z"/>
  <path d="m89.65,125.57c-.94-.49-1.45-1.58-1.47-2.69-.03-1.44.64-2.81,1.26-4.07.07-.14.13-.27.21-.4.11-.19.09-.17.19-.28l-.07.05c.14-.1.14-.1,0,0-.2.1-.41.14-.62.12.15.02.14.01-.02,0,.11.04.13.05.06.02-.07-.03-.06-.02.05.04.1.08.12.09.06.03.06.05.11.11.16.16.18.2.27.35.34.58.35,1.14-.79,2.21-1.56,2.98-.47.46-.25,1.09.34,1.27.69.22,1.54-.05,2.05-.55.98-.97,2.12-2.19,2.16-3.66s-1.09-2.65-2.5-2.81c-.94-.11-1.91.22-2.62.84-.57.5-.88,1.18-1.2,1.85-.64,1.36-1.26,2.82-1.19,4.35s.74,3.02,2.12,3.74c.64.33,1.49.21,2.07-.21.42-.3.83-1.04.19-1.37h0Z"/>
  <path d="m113.2,130.38c1.82-2.15,3.94-4.03,6.33-5.53,1.08-.67,2.21-1.27,3.37-1.77,1.1-.47,2.47-1.14,3.7-1.15,2.66-.01,2.64,3.34,1.81,5.06-.58,1.19-1.66,2.05-2.68,2.85-1.11.87-2.23,1.72-3.16,2.78-.44.5.38.64.73.63.62-.01,1.5-.24,1.93-.73,1.66-1.91,4.14-3.02,5.57-5.13,1.05-1.54,1.6-3.87.4-5.49-1.58-2.14-4.89-1.27-6.99-.58-2.49.82-4.85,1.96-7.06,3.36-2.48,1.58-4.71,3.55-6.61,5.8-.43.51.37.64.73.63.61-.01,1.51-.24,1.93-.73h0Z"/>
  <path d="m97.19,142.18c.76.66,2.62.07,3.07-.76.64-1.18-1.35-1.1-1.97-.93-1.12.3-1.94,1.08-2.71,1.91-.6.65-1.16,1.44-1.33,2.32-.15.79-.05,1.6.44,2.26.55.74,1.52.97,2.39.99,2.1.04,4.14-.99,5.97-1.92,2.11-1.07,4.11-2.38,5.97-3.86.44-.35.35-.75-.22-.83-.65-.09-1.53.13-2.05.55-1.25,1-2.55,1.91-3.93,2.7-1.18.68-2.64,1.49-3.82,1.85-.34.1-.7.17-1.12-.09-.55-.34-.77-.98-.79-1.6s.24-1.27.6-1.78c.23-.32.49-.61.76-.89.14-.14.28-.28.42-.41.07-.07.38-.25.12-.16l-1.13.24h.17c-.19-.04-.38-.06-.58-.08-.03,0,.12-.1-.02.04l.79-.5-.07.03,1.45-.23h-.07c.15.04.29.1.44.15l-.07-.06c-.46-.4-1.4-.13-1.89.07-.25.1-1.27.6-.82,1h0Z"/>
  <path d="m127.07,138.11c2.65.62,5.31,1.24,7.96,1.87l1.84-1.07c-3.69.46-7.39.92-11.08,1.38-.61.08-1.49.22-1.94.67s.4.43.66.4c3.69-.46,7.39-.92,11.08-1.38.59-.07,1.23-.22,1.74-.53.24-.15.54-.43.1-.54-2.65-.62-5.31-1.24-7.96-1.87-.63-.15-1.45.13-2.02.39-.24.11-1,.53-.38.68h0Z"/>
  <path d="m117.68,128.33c3,5.67,1.29,13.26-3.97,16.98-.55.39.49.43.67.41.68-.06,1.39-.28,1.94-.68,5.4-3.81,7.37-11.62,4.26-17.49-.35-.66-3.1.39-2.9.78h0Z"/>
  <path d="m122.42,132.59c1.09.02,1.59,1.39,1.77,2.28.27,1.31.04,2.69-.29,3.97-.72,2.8-2.25,5.33-4.42,7.24-.5.44.44.53.69.51.66-.04,1.43-.26,1.94-.7,2.42-2.13,4.15-5.02,4.8-8.18.47-2.24.58-6.25-2.62-6.32-.68-.01-1.48.15-2.05.55-.42.3-.42.66.18.67h0Z"/>
  <path d="m103.17,129.3l-.63,2.35c-.19.7-.46,1.42-.52,2.14s.15,1.56.85,1.97c.82.48,1.83.45,2.73.24,1.44-.34,2.75-1.39,3.36-2.74.57-1.24.42-2.69-.39-3.8-.95-1.29-2.63-2.03-4.22-1.83-.39.05-.77.15-1.09.41-.23.18-.49.5-.5.81-.02.71.71,1.12,1.36,1.03.12-.02.23-.02.35-.03.18,0-.01.07-.12,0,.02.01.16.02.17.02.04,0,.09.01.13.02.08.02.18.09.04,0-.15-.09-.03,0,.04.02s.14.05.2.07c.05.02.33.14.17.07s0,0,.05.03c.05.03.1.06.15.09.08.06.17.12.24.18.04.04.09.08.13.11.21.18-.1-.12,0,0,.14.17.28.33.39.52.05.08.17.35.07.11.05.12.1.24.13.36.03.1.05.19.07.29.01.06.01.11.03.17-.04-.23,0-.1,0-.03,0,.18.03.53-.07.69.1-.14.04-.14,0-.04-.02.05-.04.11-.06.16-.04.11-.09.21-.14.31-.02.04-.04.08-.06.11-.08.15.14-.19.03-.05-.08.1-.15.21-.24.31-.03.03-.1.09-.12.13.01-.03.24-.22.06-.06-.08.07-.15.13-.23.19-.05.03-.1.07-.14.1-.12.09.14-.08.13-.08-.12.04-.23.13-.35.18-.33.15.32-.09-.03,0-.06.02-.11.03-.17.04-.15.05.19-.03.18-.03-.11,0-.23.02-.34.03-.22.02.11-.02.1,0-.01.05-.33-.12-.12-.01.02,0,.26.14.15.06s.08.08.07.08c0,0-.1-.11-.09-.12.06-.06.07.25.04.06,0-.05-.02-.11-.03-.15-.04-.17.05.04,0,.05,0,0,.02-.32.02-.34.02-.13.04-.26.07-.38,0-.03.05-.21.02-.08-.04.15.04-.16.05-.19l.29-1.06.57-2.12c.08-.31.13-.57-.07-.86-.18-.25-.54-.42-.84-.45-.38-.04-.8,0-1.15.19-.28.15-.65.39-.74.72h0Z"/>
  <path d="m913.51,353.3c-2.28-.69-1.47-4.46-1.09-6.09.67-2.89,1.75-5.66,3.03-8.34,2.48-5.22,5.63-10.09,8.16-15.28,2.7-5.54,4.41-11.42,4.88-17.58s-.16-12.34-1.41-18.35c-1.48-7.09-3.83-13.97-6.53-20.69-.47-1.18-3.34-.34-2.9.78,4.84,12.09,8.88,25.16,7.93,38.33-.46,6.36-2.23,12.35-5.08,18.04s-6.03,10.49-8.47,16.02c-1.26,2.86-2.42,5.93-2.87,9.04-.34,2.32.08,5.13,2.64,5.91.66.2,1.58-.03,2.05-.55.43-.48.3-1.05-.33-1.24h0Z"/>
  <path d="m920.9,268.82c-.39-.31.58-.32-.47-.11-.22.04-.45.16-.66.23-.49.16-.98.29-1.48.4-1.01.22-2.05.34-3.08.37-1.71.04-4.3.02-5.57-1.34-2.45-2.63,1.21-6.8,2.99-8.64,2.49-2.57,5.52-4.56,8.84-5.88,2.73-1.08,8.86-2.82,9.62,1.62.35,2.04-1.18,4.32-2.41,5.83s-2.84,2.9-4.63,3.85-.16,2.26,1.23,1.52c2.21-1.18,4.2-2.71,5.78-4.66,1.48-1.82,3.13-4.27,2.99-6.72s-2.29-4.07-4.54-4.52c-2.67-.53-5.49.21-8.01,1.09-4.65,1.62-8.91,4.41-12.17,8.13-1.51,1.73-3.03,3.75-3.32,6.1s1.04,4.15,3.26,4.91c2.82.97,6.19.8,9.06.21,1.1-.22,7.38-1.9,4.82-3.96-.9-.72-3.49.58-2.26,1.57h0Z"/>
  <path d="m921.68,251.14c-1.27-.11-1.35-2.27-1.27-3.18.15-1.7.94-3.36,1.71-4.86,1.64-3.22,4.13-6.48,7.25-8.4,1.41-.86,3.29-1.6,4.81-.56,1.4.96,1.72,2.76,1.6,4.35-.13,1.75-.68,3.42-1.22,5.08-.71,2.17-1.43,4.33-2.14,6.5-.2.61.74.81,1.12.81.68,0,1.31-.3,1.71-.85,1.61-2.22,4.67.57,5.28,2.25,1.02,2.84.03,6.07-1.54,8.51-2.87,4.45-8.48,7.06-13.72,5.96-.84-.18-2.4.18-2.31,1.29.42,5.19-2.38,10.73-7.1,13.1-2.49,1.25-5.61,1.11-6.49-1.99s.97-5.7,2.66-7.99c.57-.77-.74-1.12-1.21-1.06-5.84.68-9.81-5.79-7.33-10.86,1.43-2.93,4.1-3.8,7.14-4.28,3.62-.57,7.25-1.11,10.87-1.67.57-.09,1.55-.39,1.62-1.09s-.78-.89-1.3-.81c-4.46.68-9.03,1.14-13.43,2.13-3.47.79-6.54,2.72-7.91,6.12-1.2,2.97-.89,6.36,1.16,8.88s5.55,3.87,8.86,3.48l-1.21-1.06c-2.08,2.79-4.14,6.43-2.45,9.93s5.73,3.44,8.83,2.35c6.51-2.31,10.74-9.14,10.19-15.96l-2.31,1.29c5.81,1.22,12.04-.76,16.18-5.02,2.05-2.11,3.6-4.86,4.02-7.8s-.4-6.17-3.17-7.57-6.25-.84-8.08,1.68l2.83-.03c.71-2.17,1.43-4.33,2.14-6.5.56-1.71,1.13-3.44,1.23-5.25.19-3.31-1.62-6.2-5.17-6.33s-6.84,2.12-9.3,4.55c-2.66,2.62-4.75,5.85-6.04,9.36-.97,2.63-1.39,7.12,2.44,7.45.63.05,1.61-.21,1.9-.85s-.26-1.02-.84-1.07h0Z"/>
  <path d="m928.2,303.26c5.5-11.31,11-22.64,15.78-34.27s9.25-23.13,10.48-35.36c.58-5.78.29-11.65-1.23-17.27-1.41-5.22-3.75-10.13-6.26-14.89-5.19-9.84-10.96-19.3-12.72-30.48-2.16-13.73.58-27.68,3.25-41.13.24-1.23-2.69-.8-2.91.31-2.35,11.88-4.67,23.98-3.84,36.15.4,5.81,1.6,11.51,3.73,16.93,1.95,4.95,4.5,9.63,7.05,14.29s5.2,9.51,7.15,14.57c2.07,5.37,3.2,11,3.16,16.77-.09,12.42-4.47,24.55-8.97,35.97-5.14,13.04-11.27,25.66-17.39,38.26-.65,1.34,2.25,1.14,2.73.17h0Z"/>
  <path d="m943.26,126.76c-3.26.97-6.61,1.53-10.01,1.64-3.1.1-6.51-.02-9.49-.98s-4.56-3.34-3.58-6.5c.82-2.66,2.68-5.06,4.73-6.9,4.66-4.19,10.91-5.85,17-6.52,3.23-.35,7.06-.98,10.24-.06s4.77,3.66,3.93,6.87c-1.62,6.26-8.12,9.88-13.65,12.14-.52.21-1.1.86-.7,1.42s1.42.39,1.96.17c5.91-2.41,12.24-6.12,14.77-12.32,1.32-3.25,1.07-6.8-1.99-8.92s-7.2-1.82-10.78-1.59c-7.47.48-15.23,1.91-21.33,6.51-4.15,3.13-11.17,11.51-5.18,16.13,2.96,2.29,7.56,2.49,11.12,2.57,4.56.11,9.1-.49,13.47-1.79.53-.16,1.38-.63,1.2-1.32s-1.18-.7-1.7-.54h0Z"/>
  <path d="m928.82,110.99c-2.69-2.42-2.73-6.3-2.32-9.63s.97-7.63,3.51-10.06,8.49-1.24,10.31,1.81c2.01,3.38.07,7.66,1.06,11.3.18.67,2.47-.26,2.75-.52,1.84-1.66,3.82-3.15,5.95-4.43s4.67-2.79,7.12-3.15c2.3-.34,5.05,1.42,4.51,3.99-.51,2.42-3.13,4.5-5.08,5.79-.48.32-.36.5.15.57.6.08,1.55-.22,2.05-.55,2.24-1.48,5.62-4,5.85-6.93s-3.29-4.22-5.74-4.03c-3.22.26-6.37,1.74-9.2,3.23-2.97,1.56-5.73,3.51-8.22,5.75l2.75-.52c-.95-3.51.78-7.44-.79-10.8-1.4-2.99-4.95-3.89-7.98-3.9-3.35-.02-7.07.94-9.12,3.79-1.85,2.58-2.36,6.15-2.77,9.23-.46,3.53-.38,7.45,2.45,10,.54.49,3.11-.62,2.74-.96h0Z"/>
  <path d="m926.1,109.08c-7.17-.53-15.04,1.6-20.34,6.65-2.35,2.24-4.33,5.17-4.52,8.49-.18,3.12,1.3,6.31,4.62,6.87,3.7.62,6.93-1.97,10.55-1.79l-.86-.55c-.25,3.12-2.25,5.54-3.1,8.46-.59,2.03-.58,4.63.9,6.3,1.85,2.1,5.09,1.5,7.41.71,2.75-.93,5.42-2.18,7.93-3.64s4.99-3.21,7.22-5.15c.99-.86,1.94-1.77,2.85-2.72,1.07-1.1,2-2.49,3.21-3.44.66-.51,1-.05,1.65.47.49.39.96.79,1.49,1.13,1.06.67,2.22,1.13,3.45,1.39,2.59.57,5.41.22,7.83-.84,5.21-2.3,7.91-8.51,5.57-13.81-.41-.92-3.25-.01-2.9.78,1.8,4.07.59,9.78-3.62,11.9-2.08,1.05-4.61.89-6.7-.05s-3.46-3.12-6.1-2.71-3.97,2.39-5.57,4.15c-1.81,2-3.83,3.81-5.98,5.42s-4.33,2.94-6.67,4.09c-1.11.55-2.25,1.04-3.4,1.48-1.35.52-2.94,1.19-4.3.31-1.96-1.27-1.94-4.21-1.37-6.19.84-2.92,2.85-5.35,3.1-8.46.04-.49-.49-.54-.86-.55-1.71-.08-3.39.3-5.01.8-1.48.45-3.15,1.25-4.73,1.06-4.08-.48-4.14-6.04-3-8.9,2.91-7.32,12.14-10.74,19.48-10.2.67.05,1.54-.06,2.05-.55.38-.36.41-.87-.25-.92h0Z"/>
  <path d="m803.15,160.05c-5.33-.74-6.52-8.32-6.85-12.57-.12-1.58-.13-3.17-.02-4.76.05-.76.12-1.54.38-2.26.1-.28.23-.54.4-.79.09-.16.2-.29.35-.4-.61.02-.74.1-.38.24.15.23.55.43.74.68.22.28.41.59.61.89.42.63.82,1.28,1.2,1.94.76,1.32,1.44,2.68,2.04,4.08.31.71,2.61-.15,2.88-.64.53-.97,1.05-1.94,1.58-2.92.2-.36.39-.73.59-1.09.16-.29.73-.97.78-1.27-.9.03-1.09.16-.59.39.2.15.37.32.51.54.17.27.26.57.31.88.16.99-.2,2-.48,2.94-1.14,3.77-2.68,7.41-4.54,10.88-.25.47,1.02.3,1.16.28.5-.08,1.43-.29,1.7-.79,1.26-2.35,2.38-4.78,3.32-7.28.47-1.25.9-2.51,1.28-3.79.31-1.04.72-2.27.39-3.36-.65-2.16-3.26-1.92-4.86-1.06-.96.51-1.43,1.42-1.93,2.34-.69,1.28-1.38,2.55-2.07,3.83l2.88-.64c-.76-1.75-1.63-3.44-2.63-5.06-.77-1.24-1.56-2.93-3.2-3.05-1.5-.12-3.37.54-4.31,1.73s-.99,3.07-1.05,4.58c-.15,3.71.25,7.73,1.65,11.2,1.04,2.57,2.87,5.03,5.79,5.44.67.09,1.42-.07,2.03-.37.2-.1,1.03-.66.36-.75h0Z"/>
  <path d="m859.42,227.13c.17,1.01-.61,1.46-1.48,1.31-1.18-.21-2.33-.81-3.4-1.34-2.14-1.05-4.44-2.28-6.23-3.88-.73-.65-1.47-1.59-1.08-2.62.32-.84,1.24-1.36,2.03-1.68,1.91-.76,4.08-.43,5.81.61.76.46,3.3-.24,2.46-1.4-.44-.62-.9-1.26-1.05-2.02-.05-.29-.05-.59.04-.87.03-.1.09-.19.13-.29.12-.31.16-.15-.13-.03-.22.09-.24-.08-.16.07.06.1.31.21.4.29.26.23.47.53.65.82.43.67.72,1.43,1.01,2.17,1.22,3.15,1.7,6.52,1.42,9.89-.12,1.38,2.82.92,2.92-.27.2-2.31.07-4.65-.41-6.92-.45-2.12-1.14-4.5-2.4-6.29s-3.89-2.35-5.53-.64-.7,3.71.45,5.31l2.46-1.4c-2.23-1.34-4.87-1.68-7.4-1.16-2.19.45-5.11,1.82-5.67,4.23-.59,2.53,2.32,4.27,4.08,5.41,2.28,1.48,4.87,3,7.51,3.72,1.59.43,3.31.37,4.73-.51,1.15-.72,1.96-1.91,1.72-3.3-.21-1.21-3.12-.49-2.9.78h0Z"/>
  <path d="m864.4,357.98c.73-.06.9-.12.51-.16-.19-.02-.38-.08-.56-.16-.23-.1-.46-.25-.65-.4-.57-.45-.9-1.04-1.09-1.73-.45-1.65.05-3.4.51-4.99.93-3.15,2.25-6.16,3.51-9.19,2.47-5.98,4.74-12.48,3.11-18.99-.16-.66-3.07.09-2.9.78,2.06,8.21-2.07,15.96-4.99,23.38-.72,1.84-1.4,3.7-1.89,5.62-.41,1.62-.76,3.56.12,5.09,1.42,2.47,5.01,2.19,6.95.55.52-.44-.45-.51-.69-.5-.66.03-1.43.27-1.94.7h0Z"/>
  <path d="m865.62,354.64l-3.2-1.33-.03.81c4.96-4.53,9.95-9.03,14.86-13.61,4.45-4.15,8.81-8.48,12.36-13.45,6.78-9.5,9.76-20.97,10.37-32.51.34-6.55,0-13.11-.77-19.62-.09-.8-3.01-.19-2.9.78,1.34,11.35,1.48,23.05-1.44,34.17-1.47,5.58-3.73,10.97-6.93,15.78s-7.39,9.25-11.68,13.31c-5.3,5.02-10.76,9.89-16.14,14.81-.28.25-.49.62-.03.81l3.2,1.33c.61.25,1.5,0,2.04-.31.34-.2.92-.72.29-.98h0Z"/>
  <path d="m861.48,355.05c.05-1.68,1.62-2.39,2.92-3.09,1.69-.91,3.42-1.75,5.15-2.57,3.44-1.63,6.92-3.2,10.26-5.05,5.56-3.08,10.85-7.13,14-12.77.65-1.16-2.24-.85-2.69-.04-3.37,6.05-9.14,10-15.17,13.1-3.45,1.78-7.02,3.32-10.49,5.05-2.24,1.11-6.77,2.68-6.87,5.75-.04,1.15,2.87.55,2.89-.38h0Z"/>
</svg>